{
    "accessors": [
        {
            "bufferView": 0,
            "byteOffset": 0,
            "componentType": 5126,
            "count": 16,
            "max": [
                1.0000001192092896,
                1.0000001192092896,
                1.0000001192092896
            ],
            "min": [
                -1.000000238418579,
                -1.0000001192092896,
                -1.0000004768371582
            ],
            "type": "VEC3"
        },
        {
            "bufferView": 1,
            "byteOffset": 12,
            "componentType": 5126,
            "count": 16,
            "max": [
                0.8944272398948669,
                0.44721367955207825,
                0.8944271802902222
            ],
            "min": [
                -0.8944271802902222,
                -1.0,
                -0.8944270610809326
            ],
            "type": "VEC3"
        },
        {
            "bufferView": 2,
            "byteOffset": 24,
            "componentType": 5126,
            "count": 16,
            "max": [
                1.0,
                1.0,
                1.0
            ],
            "min": [
                0.0,
                0.0,
                0.0
            ],
            "type": "VEC3"
        },
        {
            "bufferView": 3,
            "byteOffset": 0,
            "byteStride": 2,
            "componentType": 5123,
            "count": 18,
            "max": [
                15
            ],
            "min": [
                0
            ],
            "type": "SCALAR"
        }
    ],
    "asset": {
        "version": "2.0"
    },
    "bufferViews": [
        {
            "buffer": 0,
            "byteLength": 576,
            "byteStride": 36,
            "target": 34962
        },
        {
            "buffer": 0,
            "byteLength": 576,
            "byteStride": 36,
            "target": 34962
        },
        {
            "buffer": 0,
            "byteLength": 576,
            "byteStride": 36,
            "target": 34962
        },
        {
            "buffer": 0,
            "byteLength": 36,
            "byteOffset": 576,
            "target": 34963
        }
    ],
    "buffers": [
        {
            "byteLength": 612,
            "type": "arraybuffer",
            "uri": "buffer_combined.bin"
        }
    ],
    "cameras": [],
    "materials": [],
    "meshes": [
       {
            "name": "Pyramid",
            "primitives": [
                {
                    "attributes": {
                        "COLOR_0": 2,
                        "NORMAL": 1,
                        "POSITION": 0
                    },
                    "indices": 3,
                    "mode": 4
                }
            ]
        }
    ],
    "nodes": [
        {
            "meshes": [
                0
            ],
            "name": "Pyramid"
        }
    ],
    "samplers": [],
    "scenes": [
        {
            "name": "Scene",
            "nodes": [
                0
            ]
        }
    ]
}
