{
    "accessors": [
        {
            "bufferView": 0,
            "byteOffset": 0,
            "componentType": 5126,
            "count": 551928,
            "max": [
                0.22205400466918945,
                0.5540549755096436,
                0.18680700659751892
            ],
            "min": [
                -0.18861499428749084,
                -0.44594499468803406,
                -0.22434599697589874
            ],
            "type": "VEC3"
        },
        {
            "bufferView": 1,
            "byteOffset": 12,
            "componentType": 5126,
            "count": 551928,
            "max": [
                1.0000001192092896,
                1.0,
                1.0000001192092896
            ],
            "min": [
                -1.0,
                -1.0000001192092896,
                -1.0
            ],
            "type": "VEC3"
        },
        {
            "bufferView": 2,
            "byteOffset": 24,
            "componentType": 5126,
            "count": 551928,
            "max": [
                1.0,
                0,
                0.6000000238418579
            ],
            "min": [
                1.0,
                0.0,
                0.6000000238418579
            ],
            "type": "VEC3"
        },
        {
            "bufferView": 3,
            "byteOffset": 0,
            "byteStride": 4,
            "componentType": 5125,
            "count": 3262353,
            "max": [
                551927
            ],
            "min": [
                0
            ],
            "type": "SCALAR"
        }
    ],
    "asset": {
        "version": "2.0"
    },
    "bufferViews": [
        {
            "buffer": 0,
            "byteLength": 19869408,
            "byteOffset": 0,
            "byteStride": 36,
            "target": 34962
        },
        {
            "buffer": 0,
            "byteLength": 19869408,
            "byteOffset": 0,
            "byteStride": 36,
            "target": 34962
        },
        {
            "buffer": 0,
            "byteLength": 19869408,
            "byteOffset": 0,
            "byteStride": 36,
            "target": 34962
        },
        {
            "buffer": 0,
            "byteLength": 13049412,
            "byteOffset": 19869408,
            "target": 34963
        }
    ],
    "buffers": [
        {
            "byteLength": 32918820,
            "type": "arraybuffer",
            "uri": "buffer_combined.bin"
        }
    ],
    "meshes": [
        {
            "name": "root",
            "primitives": [
                {
                    "attributes": {
                        "COLOR_0": 2,
                        "NORMAL": 1,
                        "POSITION": 0
                    },
                    "indices": 3,
                    "mode": 4
                }
            ]
        }
    ],
    "nodes": [
        {
            "children": [],
            "meshes": [
                0
            ],
            "name": "root"
        }
    ],
    "samplers": [],
    "scenes": [
        {
            "name": "Scene",
            "nodes": [
                0
            ]
        }
    ]
}
